<svg xmlns="http://www.w3.org/2000/svg" version="1.1" xmlns:xlink="http://www.w3.org/1999/xlink" xmlns:svgjs="http://svgjs.com/svgjs" width="1050" height="560" preserveAspectRatio="none" viewBox="0 0 1050 560"><g mask="url(&quot;#SvgjsMask1019&quot;)" fill="none"><path d="M485.7 570.14C608.2 523.37 633.87 155.93 802.69 152.28 971.52 148.63 1028.19 330.5 1119.69 337.08" stroke="rgba(8, 201, 167, 0.85)" stroke-width="2"></path><path d="M472.52 666.4C543.4 654.29 494.89 499.25 691.27 479.67 887.65 460.09 1002.86 236.47 1128.77 227.67" stroke="rgba(8, 201, 167, 0.85)" stroke-width="2"></path><path d="M340.99 629.82C461.16 546.62 388.72 115.58 604.65 107.99 820.58 100.4 993.2 279.38 1131.97 281.59" stroke="rgba(8, 201, 167, 0.85)" stroke-width="2"></path><path d="M372.69 657.89C489.66 646.73 533.19 421.13 765.69 400.08 998.19 379.03 1043.15 163.59 1158.69 153.68" stroke="rgba(8, 201, 167, 0.85)" stroke-width="2"></path><path d="M179.58 667.83C331.27 646.58 417.76 292.34 663.25 291.71 908.74 291.08 1015.44 494.61 1146.92 498.91" stroke="rgba(8, 201, 167, 0.85)" stroke-width="2"></path></g><defs><mask id="SvgjsMask1019"><rect width="1050" height="560" fill="#ffffff"></rect></mask></defs></svg>